<?xml version="1.0" encoding="utf-8"?>
<!-- Generator: Adobe Illustrator 27.5.0, SVG Export Plug-In . SVG Version: 6.00 Build 0)  -->
<svg version="1.1" xmlns="http://www.w3.org/2000/svg" xmlns:xlink="http://www.w3.org/1999/xlink" x="0px" y="0px"
	 viewBox="0 0 1122 1122" style="enable-background:new 0 0 1122 1122;" xml:space="preserve">
<g id="Bg">
	<rect style="fill:#FFFFFF;" width="1122" height="1122"/>
</g>
<g id="Object">
	<g>
		<g>
			<path style="fill:none;" d="M460.041,541.58h114.574c4.024,0,7.286-3.262,7.286-7.286v-11.955c0-4.024-3.262-7.287-7.286-7.287
				H460.041c-4.025,0-7.286,3.262-7.286,7.287v11.955C452.755,538.318,456.017,541.58,460.041,541.58z"/>
			<path style="fill:none;" d="M460.041,500.593h114.574c4.024,0,7.286-3.262,7.286-7.286v-11.955c0-4.024-3.262-7.286-7.286-7.286
				H460.041c-4.025,0-7.286,3.262-7.286,7.286v11.955C452.755,497.331,456.017,500.593,460.041,500.593z"/>
			<path style="fill:none;" d="M460.041,459.205h114.574c4.024,0,7.286-3.263,7.286-7.286v-11.955c0-4.024-3.262-7.286-7.286-7.286
				H460.041c-4.025,0-7.286,3.262-7.286,7.286v11.955C452.755,455.943,456.017,459.205,460.041,459.205z"/>
			<path style="fill:none;" d="M620.977,497.543l91.427,39.579c4.83,2.091,8.752,1.358,8.761-1.636l0.025-8.377
				c0.009-2.994-3.898-7.117-8.728-9.208l-91.426-39.579c-4.83-2.091-8.752-1.358-8.762,1.636l-0.025,8.377
				C612.24,491.33,616.147,495.453,620.977,497.543z"/>
			<path style="fill:none;" d="M268.541,576.28c-9.845-11.008-24.759-13.732-33.311-6.083c-8.552,7.648-7.503,22.772,2.342,33.78
				c9.845,11.008,24.759,13.732,33.311,6.084C279.435,602.412,278.386,587.288,268.541,576.28z"/>
			<path style="fill:none;" d="M620.977,535.589l91.427,39.579c4.83,2.091,8.752,1.358,8.761-1.637l0.025-8.377
				c0.009-2.995-3.898-7.117-8.728-9.207l-91.426-39.579c-4.83-2.091-8.752-1.358-8.762,1.636l-0.025,8.376
				C612.24,529.376,616.147,533.498,620.977,535.589z"/>
			<path style="fill:none;" d="M620.977,459.497l91.427,39.579c4.83,2.091,8.752,1.358,8.761-1.636l0.025-8.376
				c0.009-2.995-3.898-7.117-8.728-9.208l-91.426-39.579c-4.83-2.091-8.752-1.358-8.762,1.636l-0.025,8.376
				C612.24,453.284,616.147,457.407,620.977,459.497z"/>
			<path style="fill:#E7E6E2;" d="M596.029,532.451c-4.476-42.519-11.024-82.954-6.069-125.189c-1.971-0.084-3.957-0.16-5.977-0.22
				c-34.229-1.006-138.441-10.5-138.441,18.216c0,81.061-1.719,119.913,2.915,133.267c23.066,6.367,47.521,14.126,73.289,23.68
				c26.355,9.771,49.98,16.948,71.537,22.077C592.107,579.815,598.278,557.185,596.029,532.451z M581.901,534.294
				c0,4.024-3.262,7.286-7.286,7.286H460.041c-4.025,0-7.286-3.262-7.286-7.286v-11.955c0-4.024,3.262-7.287,7.286-7.287h114.574
				c4.024,0,7.286,3.262,7.286,7.287V534.294z M581.901,493.307c0,4.024-3.262,7.286-7.286,7.286H460.041
				c-4.025,0-7.286-3.262-7.286-7.286v-11.955c0-4.024,3.262-7.286,7.286-7.286h114.574c4.024,0,7.286,3.262,7.286,7.286V493.307z
				 M581.901,451.919c0,4.024-3.262,7.286-7.286,7.286H460.041c-4.025,0-7.286-3.263-7.286-7.286v-11.955
				c0-4.024,3.262-7.286,7.286-7.286h114.574c4.024,0,7.286,3.262,7.286,7.286V451.919z"/>
			<path style="fill:#E7DBC0;" d="M762.903,498.718c0-33.274-19.18-36.811-45.772-56.71c-25.974-19.437-64.967-31.63-122.465-34.528
				c-1.557-0.078-3.128-0.15-4.707-0.218c-4.955,42.234,1.594,82.67,6.069,125.189c2.249,24.735-3.922,47.364-2.747,71.831
				c70.482,16.768,118.587,11.37,165.426,0.875c1.117-1.066,1.666-1.7,1.666-1.7C764.673,562.06,762.903,536.345,762.903,498.718z
				 M721.164,573.532c-0.009,2.995-3.931,3.727-8.761,1.637l-91.427-39.579c-4.83-2.091-8.737-6.213-8.728-9.208l0.025-8.376
				c0.01-2.995,3.932-3.727,8.762-1.636l91.426,39.579c4.83,2.09,8.737,6.213,8.728,9.207L721.164,573.532z M721.164,535.486
				c-0.009,2.994-3.931,3.727-8.761,1.636l-91.427-39.579c-4.83-2.091-8.737-6.213-8.728-9.208l0.025-8.377
				c0.01-2.994,3.932-3.727,8.762-1.636l91.426,39.579c4.83,2.091,8.737,6.213,8.728,9.208L721.164,535.486z M721.164,497.44
				c-0.009,2.994-3.931,3.727-8.761,1.636l-91.427-39.579c-4.83-2.09-8.737-6.213-8.728-9.208l0.025-8.376
				c0.01-2.995,3.932-3.727,8.762-1.636l91.426,39.579c4.83,2.091,8.737,6.213,8.728,9.208L721.164,497.44z"/>
			<path style="fill:#EAF1DE;" d="M718.12,389.841c-39.958-25.794-46.406-53.551-123.453-32.831v41.438
				c57.498,2.898,96.491,15.091,122.465,34.528C718.5,421.837,718.634,406.358,718.12,389.841z"/>
			<path style="fill:#B1664C;" d="M718.12,371.626c-1.084-34.83-5.692-75.29-5.692-75.29s-32.359-45.116-95.484-8.882v57.265
				C648.651,323.908,685.372,350.487,718.12,371.626z"/>
			<path style="fill:#4E80D4;" d="M311.862,645.35c78.903,20.324,237.904,52.602,344.304,37.061
				c76.198-11.13,157.903-25.329,211.766-46.543c5.025-25.549,5.988-44.951,5.988-44.951c-44.052,6.293-79.268,17.327-115.212,25.38
				c-61.165,13.705-124.44,18.766-236.963-22.952c-25.767-9.553-50.223-17.313-73.289-23.679
				c-136.732-37.741-223.023-24.897-223.023-24.897c-68.971,0-53.726,58.592-20.04,116.417
				C221.283,649.49,255.144,630.741,311.862,645.35z M237.572,603.977c-9.845-11.008-10.894-26.132-2.342-33.78
				c8.552-7.648,23.466-4.925,33.311,6.083c9.845,11.008,10.894,26.132,2.342,33.781
				C262.331,617.709,247.417,614.985,237.572,603.977z"/>
			<path style="fill:#CACACA;" d="M516.888,785.221c123.868,21.859,252.796-12.801,293.638-39.534
				c34.148-22.351,50.087-72.606,57.407-109.818c-53.863,21.213-135.568,35.412-211.766,46.543
				c-106.399,15.541-265.401-16.737-344.304-37.061c-56.718-14.609-90.579,4.139-106.469,15.837
				c33.337,57.226,84.736,113.701,90.475,111.889C343.615,757.999,393.02,763.361,516.888,785.221z"/>
			<path style="fill:#94ABEE;" d="M798.923,770.973c-23.073,23.681-129.447,53.876-239.937,28.839
				c-103.59-23.473-210.604-19.731-210.604-19.731s42.504,12.144,202.197,57.684C710.272,883.305,798.923,770.973,798.923,770.973z"
				/>
			<path style="fill:#EAF1DE;" d="M877.585,723.091c-38.861,7.894-98.366,89.258-98.366,89.258
				c113.147-82.974,173.278-57.895,165.158-60.72C943.77,741.307,916.446,715.197,877.585,723.091z"/>
		</g>
		<g>
			<path style="fill:none;" d="M460.041,541.58h114.574c4.024,0,7.286-3.262,7.286-7.286v-11.955c0-4.024-3.262-7.287-7.286-7.287
				H460.041c-4.025,0-7.286,3.262-7.286,7.287v11.955C452.755,538.318,456.017,541.58,460.041,541.58z"/>
			<path style="fill:none;" d="M460.041,500.593h114.574c4.024,0,7.286-3.262,7.286-7.286v-11.955c0-4.024-3.262-7.286-7.286-7.286
				H460.041c-4.025,0-7.286,3.262-7.286,7.286v11.955C452.755,497.331,456.017,500.593,460.041,500.593z"/>
			<path style="fill:none;" d="M460.041,459.205h114.574c4.024,0,7.286-3.263,7.286-7.286v-11.955c0-4.024-3.262-7.286-7.286-7.286
				H460.041c-4.025,0-7.286,3.262-7.286,7.286v11.955C452.755,455.943,456.017,459.205,460.041,459.205z"/>
			<path style="fill:none;" d="M620.977,497.543l91.427,39.579c4.83,2.091,8.752,1.358,8.761-1.636l0.025-8.377
				c0.009-2.994-3.898-7.117-8.728-9.208l-91.426-39.579c-4.83-2.091-8.752-1.358-8.762,1.636l-0.025,8.377
				C612.24,491.33,616.147,495.453,620.977,497.543z"/>
			<path style="fill:none;" d="M268.541,576.28c-9.845-11.008-24.759-13.732-33.311-6.083c-8.552,7.648-7.503,22.772,2.342,33.78
				c9.845,11.008,24.759,13.732,33.311,6.084C279.435,602.412,278.386,587.288,268.541,576.28z"/>
			<path style="fill:none;" d="M620.977,535.589l91.427,39.579c4.83,2.091,8.752,1.358,8.761-1.637l0.025-8.377
				c0.009-2.995-3.898-7.117-8.728-9.207l-91.426-39.579c-4.83-2.091-8.752-1.358-8.762,1.636l-0.025,8.376
				C612.24,529.376,616.147,533.498,620.977,535.589z"/>
			<path style="fill:none;" d="M620.977,459.497l91.427,39.579c4.83,2.091,8.752,1.358,8.761-1.636l0.025-8.376
				c0.009-2.995-3.898-7.117-8.728-9.208l-91.426-39.579c-4.83-2.091-8.752-1.358-8.762,1.636l-0.025,8.376
				C612.24,453.284,616.147,457.407,620.977,459.497z"/>
			<radialGradient id="SVGID_1_" cx="465.2494" cy="424.545" r="690.9689" gradientUnits="userSpaceOnUse">
				<stop  offset="0" style="stop-color:#F4F4F4"/>
				<stop  offset="0.1419" style="stop-color:#E0E0DF"/>
				<stop  offset="0.5413" style="stop-color:#ADACA7"/>
				<stop  offset="0.8392" style="stop-color:#8D8B85"/>
				<stop  offset="1" style="stop-color:#817F78"/>
			</radialGradient>
			<path style="fill:url(#SVGID_1_);" d="M596.029,532.451c-4.476-42.519-11.024-82.954-6.069-125.189
				c-1.971-0.084-3.957-0.16-5.977-0.22c-34.229-1.006-138.441-10.5-138.441,18.216c0,81.061-1.719,119.913,2.915,133.267
				c23.066,6.367,47.521,14.126,73.289,23.68c26.355,9.771,49.98,16.948,71.537,22.077
				C592.107,579.815,598.278,557.185,596.029,532.451z M581.901,534.294c0,4.024-3.262,7.286-7.286,7.286H460.041
				c-4.025,0-7.286-3.262-7.286-7.286v-11.955c0-4.024,3.262-7.287,7.286-7.287h114.574c4.024,0,7.286,3.262,7.286,7.287V534.294z
				 M581.901,493.307c0,4.024-3.262,7.286-7.286,7.286H460.041c-4.025,0-7.286-3.262-7.286-7.286v-11.955
				c0-4.024,3.262-7.286,7.286-7.286h114.574c4.024,0,7.286,3.262,7.286,7.286V493.307z M581.901,451.919
				c0,4.024-3.262,7.286-7.286,7.286H460.041c-4.025,0-7.286-3.263-7.286-7.286v-11.955c0-4.024,3.262-7.286,7.286-7.286h114.574
				c4.024,0,7.286,3.262,7.286,7.286V451.919z"/>
			
				<radialGradient id="SVGID_00000033364578863638484440000016317670700300708528_" cx="620.0974" cy="436.3856" r="738.7347" gradientUnits="userSpaceOnUse">
				<stop  offset="0" style="stop-color:#F4F4F4"/>
				<stop  offset="0.1419" style="stop-color:#E0E0DF"/>
				<stop  offset="0.5413" style="stop-color:#ADACA7"/>
				<stop  offset="0.8392" style="stop-color:#8D8B85"/>
				<stop  offset="1" style="stop-color:#817F78"/>
			</radialGradient>
			<path style="fill:url(#SVGID_00000033364578863638484440000016317670700300708528_);" d="M762.903,498.718
				c0-33.274-19.18-36.811-45.772-56.71c-25.974-19.437-64.967-31.63-122.465-34.528c-1.557-0.078-3.128-0.15-4.707-0.218
				c-4.955,42.234,1.594,82.67,6.069,125.189c2.249,24.735-3.922,47.364-2.747,71.831c70.482,16.768,118.587,11.37,165.426,0.875
				c1.117-1.066,1.666-1.7,1.666-1.7C764.673,562.06,762.903,536.345,762.903,498.718z M721.164,573.532
				c-0.009,2.995-3.931,3.727-8.761,1.637l-91.427-39.579c-4.83-2.091-8.737-6.213-8.728-9.208l0.025-8.376
				c0.01-2.995,3.932-3.727,8.762-1.636l91.426,39.579c4.83,2.09,8.737,6.213,8.728,9.207L721.164,573.532z M721.164,535.486
				c-0.009,2.994-3.931,3.727-8.761,1.636l-91.427-39.579c-4.83-2.091-8.737-6.213-8.728-9.208l0.025-8.377
				c0.01-2.994,3.932-3.727,8.762-1.636l91.426,39.579c4.83,2.091,8.737,6.213,8.728,9.208L721.164,535.486z M721.164,497.44
				c-0.009,2.994-3.931,3.727-8.761,1.636l-91.427-39.579c-4.83-2.09-8.737-6.213-8.728-9.208l0.025-8.376
				c0.01-2.995,3.932-3.727,8.762-1.636l91.426,39.579c4.83,2.091,8.737,6.213,8.728,9.208L721.164,497.44z"/>
			
				<radialGradient id="SVGID_00000040566138302379773010000012570730450047779977_" cx="610.765" cy="359.2122" r="464.3612" gradientUnits="userSpaceOnUse">
				<stop  offset="0" style="stop-color:#F4F4F4"/>
				<stop  offset="0.1419" style="stop-color:#E0E0DF"/>
				<stop  offset="0.5413" style="stop-color:#ADACA7"/>
				<stop  offset="0.8392" style="stop-color:#8D8B85"/>
				<stop  offset="1" style="stop-color:#817F78"/>
			</radialGradient>
			<path style="fill:url(#SVGID_00000040566138302379773010000012570730450047779977_);" d="M718.12,389.841
				c-39.958-25.794-46.406-53.551-123.453-32.831v41.438c57.498,2.898,96.491,15.091,122.465,34.528
				C718.5,421.837,718.634,406.358,718.12,389.841z"/>
			
				<radialGradient id="SVGID_00000134250545029930484910000016999794257600124839_" cx="629.1872" cy="289.1002" r="367.8567" gradientUnits="userSpaceOnUse">
				<stop  offset="0" style="stop-color:#EBB249"/>
				<stop  offset="0.1958" style="stop-color:#B48838"/>
				<stop  offset="0.486" style="stop-color:#674E20"/>
				<stop  offset="0.7263" style="stop-color:#30240F"/>
				<stop  offset="0.9041" style="stop-color:#0D0A04"/>
				<stop  offset="1" style="stop-color:#000000"/>
			</radialGradient>
			<path style="fill:url(#SVGID_00000134250545029930484910000016999794257600124839_);" d="M718.12,371.626
				c-1.084-34.83-5.692-75.29-5.692-75.29s-32.359-45.116-95.484-8.882v57.265C648.651,323.908,685.372,350.487,718.12,371.626z"/>
			
				<radialGradient id="SVGID_00000128470661674547942220000003196242630300852610_" cx="695.7656" cy="696.0009" r="1281.2623" gradientUnits="userSpaceOnUse">
				<stop  offset="0" style="stop-color:#5184C8"/>
				<stop  offset="0.1626" style="stop-color:#426CA3"/>
				<stop  offset="0.5722" style="stop-color:#1F324C"/>
				<stop  offset="0.8608" style="stop-color:#090E15"/>
				<stop  offset="1" style="stop-color:#000000"/>
			</radialGradient>
			<path style="fill:url(#SVGID_00000128470661674547942220000003196242630300852610_);" d="M311.862,645.35
				c78.903,20.324,237.904,52.602,344.304,37.061c76.198-11.13,157.903-25.329,211.766-46.543
				c5.025-25.549,5.988-44.951,5.988-44.951c-44.052,6.293-79.268,17.327-115.212,25.38
				c-61.165,13.705-124.44,18.766-236.963-22.952c-25.767-9.553-50.223-17.313-73.289-23.679
				c-136.732-37.741-223.023-24.897-223.023-24.897c-68.971,0-53.726,58.592-20.04,116.417
				C221.283,649.49,255.144,630.741,311.862,645.35z M237.572,603.977c-9.845-11.008-10.894-26.132-2.342-33.78
				c8.552-7.648,23.466-4.925,33.311,6.083c9.845,11.008,10.894,26.132,2.342,33.781
				C262.331,617.709,247.417,614.985,237.572,603.977z"/>
			
				<radialGradient id="SVGID_00000009570567526033075650000000585520642841259398_" cx="631.299" cy="684.1125" r="807.2899" gradientUnits="userSpaceOnUse">
				<stop  offset="0" style="stop-color:#FCF6E8"/>
				<stop  offset="0.1362" style="stop-color:#E8E2D5"/>
				<stop  offset="0.5383" style="stop-color:#B0ADA3"/>
				<stop  offset="0.8381" style="stop-color:#8E8C84"/>
				<stop  offset="1" style="stop-color:#817F78"/>
			</radialGradient>
			<path style="fill:url(#SVGID_00000009570567526033075650000000585520642841259398_);" d="M516.888,785.221
				c123.868,21.859,252.796-12.801,293.638-39.534c34.148-22.351,50.087-72.606,57.407-109.818
				c-53.863,21.213-135.568,35.412-211.766,46.543c-106.399,15.541-265.401-16.737-344.304-37.061
				c-56.718-14.609-90.579,4.139-106.469,15.837c33.337,57.226,84.736,113.701,90.475,111.889
				C343.615,757.999,393.02,763.361,516.888,785.221z"/>
			
				<radialGradient id="SVGID_00000162349573217184627340000010313099715083618227_" cx="526.9709" cy="770.53" r="403.0755" gradientUnits="userSpaceOnUse">
				<stop  offset="0" style="stop-color:#94ABEE"/>
				<stop  offset="0.204" style="stop-color:#7081B4"/>
				<stop  offset="0.4912" style="stop-color:#404A67"/>
				<stop  offset="0.7291" style="stop-color:#1E2230"/>
				<stop  offset="0.9051" style="stop-color:#08090D"/>
				<stop  offset="1" style="stop-color:#000000"/>
			</radialGradient>
			<path style="fill:url(#SVGID_00000162349573217184627340000010313099715083618227_);" d="M798.923,770.973
				c-23.073,23.681-129.447,53.876-239.937,28.839c-103.59-23.473-210.604-19.731-210.604-19.731s42.504,12.144,202.197,57.684
				C710.272,883.305,798.923,770.973,798.923,770.973z"/>
			
				<radialGradient id="SVGID_00000088833991644808918910000008214264919810247329_" cx="860.9167" cy="737.1026" r="436.3341" gradientUnits="userSpaceOnUse">
				<stop  offset="0" style="stop-color:#FCF6E8"/>
				<stop  offset="0.1362" style="stop-color:#E8E2D5"/>
				<stop  offset="0.5383" style="stop-color:#B0ADA3"/>
				<stop  offset="0.8381" style="stop-color:#8E8C84"/>
				<stop  offset="1" style="stop-color:#817F78"/>
			</radialGradient>
			<path style="fill:url(#SVGID_00000088833991644808918910000008214264919810247329_);" d="M877.585,723.091
				c-38.861,7.894-98.366,89.258-98.366,89.258c113.147-82.974,173.278-57.895,165.158-60.72
				C943.77,741.307,916.446,715.197,877.585,723.091z"/>
		</g>
	</g>
</g>
</svg>
